<svg xmlns="http://www.w3.org/2000/svg" xml:space="preserve" width="1024" height="160"><path d="M-8.809-10.34h1050.87v217.08H-8.809Z" style="font-variation-settings:&quot;wght&quot;300;fill:#3584e4;fill-opacity:.326092;stroke:none;stroke-width:1.12447px;-inkscape-stroke:none;stop-color:#000"/><g style="stroke-width:.763762" transform="matrix(1.3093 0 0 1.3093 -431.191 542.205)"><rect width="33" height="33" x="656.412" y="-383.358" fill="none" rx="6" ry="6" style="color:#000;display:inline;overflow:visible;visibility:visible;fill:#df9c9d;fill-opacity:0;fill-rule:nonzero;stroke:#df9c9d;stroke-width:.763761;stroke-linecap:butt;stroke-linejoin:miter;stroke-miterlimit:4;stroke-dasharray:none;stroke-dashoffset:0;stroke-opacity:0;marker:none;enable-background:accumulate"/><rect width="33" height="33" x="656.412" y="-383.358" fill="none" rx="6" ry="6" style="color:#000;display:inline;overflow:visible;visibility:visible;fill:#df9c9d;fill-opacity:0;fill-rule:nonzero;stroke:#df9c9d;stroke-width:.763761;stroke-linecap:butt;stroke-linejoin:miter;stroke-miterlimit:4;stroke-dasharray:none;stroke-dashoffset:0;stroke-opacity:0;marker:none;enable-background:accumulate"/><g style="stroke-width:.763762" transform="matrix(0 1 1 0 471.932 -537.996)"><path d="M165.137 199.004a1 1 0 0 0-.71.293 1 1 0 0 0 0 1.414l6 6a1 1 0 0 0 1.417 0l6-6a1 1 0 0 0 0-1.414 1 1 0 0 0-1.416 0l-5.291 5.293-5.293-5.293a1 1 0 0 0-.707-.293z" style="fill:#2e3436;fill-opacity:1;stroke-width:.763762"/><path d="M163.136 195.003h16v16h-16z" style="fill:none;fill-opacity:1;stroke-width:.763762"/></g><g style="stroke-width:.763762" transform="rotate(90 689.967 151.971)"><path d="M165.137 199.004a1 1 0 0 0-.71.293 1 1 0 0 0 0 1.414l6 6a1 1 0 0 0 1.417 0l6-6a1 1 0 0 0 0-1.414 1 1 0 0 0-1.416 0l-5.291 5.293-5.293-5.293a1 1 0 0 0-.707-.293z" style="fill:#2e3436;fill-opacity:1;stroke-width:.763762"/><path d="M163.136 195.003h16v16h-16z" style="fill:none;fill-opacity:1;stroke-width:.763762"/></g><rect width="880" height="151.746" x="392.926" y="-400.859" rx="19.06" ry="19.06" style="display:inline;fill:#000;fill-opacity:.283919;stroke:#fafafa;stroke-width:0;stroke-miterlimit:4;stroke-dasharray:none;stroke-opacity:1"/><rect width="859.797" height="141.746" x="403.128" y="-390.859" rx="9" ry="9" style="display:inline;fill:#1e1e1e;fill-opacity:1;stroke:#fafafa;stroke-width:0;stroke-miterlimit:4;stroke-dasharray:none;stroke-opacity:1"/><rect width="33" height="33" x="1222.412" y="-383.358" fill="none" rx="6" ry="6" style="color:#000;display:inline;overflow:visible;visibility:visible;fill:#e01b24;fill-opacity:0;fill-rule:nonzero;stroke:#e01b24;stroke-width:.763761;stroke-linecap:butt;stroke-linejoin:miter;stroke-miterlimit:4;stroke-dasharray:none;stroke-dashoffset:0;stroke-opacity:0;marker:none;enable-background:accumulate"/><circle cx="1238.913" cy="-366.858" r="11" style="fill:#000;fill-opacity:.0769432;stroke:#646464;stroke-width:0;stroke-linecap:round;stroke-dasharray:none;stroke-opacity:.621392"/><g style="stroke-width:.763762" transform="translate(1230.933 -374.861)"><path d="M0 0h16v16H0z" style="fill:none;stroke-width:.763762"/><path d="M4 4h1.031c.255.011.51.129.688.313L8 6.592l2.313-2.28c.265-.231.446-.306.687-.313h1v1c0 .286-.034.55-.25.75L9.469 8.031l2.25 2.25c.188.188.281.454.281.719v1h-1c-.265 0-.53-.093-.719-.281L8 9.438l-2.281 2.28A1.015 1.015 0 0 1 5 12H4v-1c0-.265.093-.53.281-.719l2.282-2.25L4.28 5.75A.909.909 0 0 1 4 5Z" style="fill:#2e3436;fill-opacity:1;stroke-width:.763762"/></g><rect width="33" height="33" x="622.409" y="-383.358" fill="none" rx="6" ry="6" style="color:#000;display:inline;overflow:visible;visibility:visible;fill:#df9c9d;fill-opacity:0;fill-rule:nonzero;stroke:#df9c9d;stroke-width:.763761;stroke-linecap:butt;stroke-linejoin:miter;stroke-miterlimit:4;stroke-dasharray:none;stroke-dashoffset:0;stroke-opacity:0;marker:none;enable-background:accumulate"/><rect width="33" height="33" x="622.409" y="-383.358" fill="none" rx="6" ry="6" style="color:#000;display:inline;overflow:visible;visibility:visible;fill:#df9c9d;fill-opacity:0;fill-rule:nonzero;stroke:#df9c9d;stroke-width:.763761;stroke-linecap:butt;stroke-linejoin:miter;stroke-miterlimit:4;stroke-dasharray:none;stroke-dashoffset:0;stroke-opacity:0;marker:none;enable-background:accumulate"/><path d="M411.95-390.862h202v134.65h-211v-125.65c0-4.986 4.013-9 9-9z" style="display:inline;fill:#303030;fill-opacity:1;stroke:#fafafa;stroke-width:0"/><g style="fill:#a4a4a4;fill-opacity:1;stroke-width:.763762"><g style="fill:#a4a4a4;fill-opacity:1;stroke-width:.763762"><rect width="8.996" height="8.996" x="2968.89" y="-1022.477" rx="1.587" ry="1.587" style="display:inline;fill:#303030;fill-opacity:1;stroke:#4a90d9;stroke-width:0;stroke-linecap:square;stroke-miterlimit:4;stroke-dasharray:none;stroke-dashoffset:0;stroke-opacity:1" transform="matrix(3.77953 0 0 3.77953 -10648.062 3480.617)"/></g><g style="fill:#a4a4a4;fill-opacity:1;stroke-width:.763762" transform="rotate(90 665.47 127.473)"><path d="M-210.003 165.136h14v2h-14zM-210.003 170.136h14v2h-14zM-210.003 175.136h14v2h-14z" style="fill:#fcfcfc;fill-opacity:1;stroke-width:.763762;stroke-dasharray:6.11009,6.11009" transform="rotate(-90)"/><path d="M163.136 195.003h16v16h-16z" style="fill:none;fill-opacity:1;stroke-width:.763762"/></g></g><rect width="336.007" height="32" x="770.934" y="-382.864" rx="5.051" ry="5.051" style="fill:#343434;fill-opacity:1;stroke:#567190;stroke-width:1.52752;stroke-linecap:round;stroke-dasharray:none;stroke-dashoffset:0;stroke-opacity:1"/><g style="fill:#a4a4a4;fill-opacity:1;stroke-width:.763762" transform="translate(668.918 -1042.884)"><path d="M112.006 668h16v16h-16z" style="fill:none;fill-opacity:1;stroke-width:.763762"/><path d="M118.578 668.064c-3.578 0-6.5 2.922-6.5 6.5s2.922 6.498 6.5 6.498c1.43 0 2.755-.466 3.83-1.254l2.973 2.972c.958.938 2.365-.499 1.406-1.437l-2.959-2.96a6.455 6.455 0 0 0 1.25-3.82c0-3.577-2.922-6.5-6.5-6.5zm0 2c2.497 0 4.5 2.003 4.5 4.5a4.483 4.483 0 0 1-4.5 4.498 4.483 4.483 0 0 1-4.5-4.498c0-2.497 2.003-4.5 4.5-4.5z" style="fill:#a4a4a4;fill-opacity:1;stroke-width:.763762"/><path d="M112.006 668h16v16h-16z" style="opacity:.706383;fill:none;fill-opacity:1;stroke-width:.763762"/></g><path d="M804.453-377.886v22" style="fill:none;stroke:#2e3436;stroke-width:.763761px;stroke-linecap:butt;stroke-linejoin:miter;stroke-opacity:1"/><rect width="28" height="28" x="1073.948" y="-380.866" fill="none" rx="6" ry="6" style="display:inline;fill:#000;fill-opacity:0;stroke:#4a90d9;stroke-width:0;stroke-linecap:square;stroke-miterlimit:4;stroke-dasharray:none;stroke-dashoffset:0;stroke-opacity:1"/><text xml:space="preserve" x="806.443" y="-361.518" style="font-style:normal;font-variant:normal;font-weight:400;font-stretch:normal;font-size:14.6667px;line-height:0%;font-family:Cantarell;-inkscape-font-specification:Cantarell;text-align:start;letter-spacing:0;word-spacing:0;text-anchor:start;display:inline;fill:#9d9d9d;fill-opacity:1;stroke:none;stroke-width:.763761"><tspan x="806.443" y="-361.518" style="font-weight:400;font-size:14.6667px;line-height:1.25;text-align:start;text-anchor:start;fill:#9d9d9d;fill-opacity:1;stroke-width:.763761">Search everywhere</tspan></text><rect width="34" height="34" x="409.945" y="-383.864" rx="6" ry="6" style="display:inline;fill:#000;fill-opacity:.0969558;stroke:#4a90d9;stroke-width:0;stroke-linecap:square;stroke-miterlimit:4;stroke-dasharray:none;stroke-dashoffset:0;stroke-opacity:1"/><g style="stroke-width:.763762" transform="translate(306.94 -1042.864)"><path d="M112.006 668h16v16h-16z" style="fill:none;stroke-width:.763762"/><path d="M118.578 668.064c-3.578 0-6.5 2.922-6.5 6.5s2.922 6.498 6.5 6.498c1.43 0 2.755-.466 3.83-1.254l2.973 2.972c.958.938 2.365-.499 1.406-1.437l-2.959-2.96a6.455 6.455 0 0 0 1.25-3.82c0-3.577-2.922-6.5-6.5-6.5zm0 2c2.497 0 4.5 2.003 4.5 4.5a4.483 4.483 0 0 1-4.5 4.498 4.483 4.483 0 0 1-4.5-4.498c0-2.497 2.003-4.5 4.5-4.5z" style="fill:#2e3436;fill-opacity:1;stroke-width:.763762"/><path d="M112.006 668h16v16h-16z" style="opacity:.706383;fill:none;stroke-width:.763762"/></g><text xml:space="preserve" x="508.117" y="-362.686" style="font-style:normal;font-variant:normal;font-weight:400;font-stretch:normal;font-size:14.6667px;line-height:0%;font-family:Cantarell;-inkscape-font-specification:Cantarell;text-align:center;letter-spacing:0;word-spacing:0;text-anchor:middle;display:inline;fill:#fcfcfc;fill-opacity:1;stroke:none;stroke-width:.763761"><tspan x="508.117" y="-362.686" style="font-weight:700;font-size:14.6667px;line-height:1.25;text-align:center;text-anchor:middle;fill:#fcfcfc;fill-opacity:1;stroke-width:.763761">Files</tspan></text><g style="stroke-width:.763762" transform="translate(306.94 -1042.864)"><path d="M112.006 668h16v16h-16z" style="fill:none;stroke-width:.763762"/><path d="M118.578 668.064c-3.578 0-6.5 2.922-6.5 6.5s2.922 6.498 6.5 6.498c1.43 0 2.755-.466 3.83-1.254l2.973 2.972c.958.938 2.365-.499 1.406-1.437l-2.959-2.96a6.455 6.455 0 0 0 1.25-3.82c0-3.577-2.922-6.5-6.5-6.5zm0 2c2.497 0 4.5 2.003 4.5 4.5a4.483 4.483 0 0 1-4.5 4.498 4.483 4.483 0 0 1-4.5-4.498c0-2.497 2.003-4.5 4.5-4.5z" style="fill:#fcfcfc;fill-opacity:1;stroke-width:.763762"/><path d="M112.006 668h16v16h-16z" style="opacity:.706383;fill:none;stroke-width:.763762"/></g><g style="stroke-width:.763762"><g style="display:inline;fill:#2e3436;stroke-width:.763762"><path fill="none" d="M114 201h16v16h-16z" style="display:inline;overflow:visible;opacity:.6;fill-opacity:0;stroke-width:.763762;marker:none;enable-background:accumulate" transform="matrix(1 0 0 1 305.928 -490.858)"/><g style="display:inline;fill:#2e3436;fill-opacity:1;stroke-width:.763762"><g style="fill:#2e3436;fill-opacity:1;stroke-width:.763762"><path d="M47.5 688.013a7.492 7.492 0 0 0-7.487 7.487 7.492 7.492 0 0 0 7.487 7.487 7.492 7.492 0 0 0 7.487-7.487 7.492 7.492 0 0 0-7.487-7.487zm0 1.974a5.508 5.508 0 0 1 5.513 5.513 5.508 5.508 0 0 1-5.513 5.513 5.508 5.508 0 0 1-5.513-5.513 5.508 5.508 0 0 1 5.513-5.513z" style="color:#000;font-style:normal;font-variant:normal;font-weight:400;font-stretch:normal;font-size:medium;line-height:normal;font-family:Sans;-inkscape-font-specification:Sans;text-indent:0;text-align:start;text-decoration:none;text-decoration-line:none;letter-spacing:normal;word-spacing:normal;text-transform:none;writing-mode:lr-tb;direction:ltr;baseline-shift:baseline;text-anchor:start;display:inline;overflow:visible;visibility:visible;fill:#c0bfbc;fill-opacity:1;stroke:none;stroke-width:1.64503;marker:none;enable-background:accumulate" transform="matrix(1 0 0 1 379.941 -976.844)"/><path d="M50.406 692a.5.5 0 0 0-.25.156l-2.656 2.657-1.656-1.657a.5.5 0 1 0-.688.688l2 2a.5.5 0 0 0 .688 0l3-3a.5.5 0 0 0-.438-.844Z" style="color:#000;font-style:normal;font-variant:normal;font-weight:400;font-stretch:normal;font-size:medium;line-height:normal;font-family:Sans;-inkscape-font-specification:Sans;text-indent:0;text-align:start;text-decoration:none;text-decoration-line:none;letter-spacing:normal;word-spacing:normal;text-transform:none;writing-mode:lr-tb;direction:ltr;baseline-shift:baseline;text-anchor:start;display:inline;overflow:visible;visibility:visible;fill:#c0bfbc;fill-opacity:1;stroke:none;stroke-width:.763762;marker:none;enable-background:accumulate" transform="matrix(1 0 0 1 379.941 -976.844)"/></g></g></g><path fill="none" d="M3048.655-917.967h49.212c.88 0 1.588.708 1.588 1.588v6.35c0 .88-.708 1.587-1.588 1.587h-49.212c-.88 0-1.588-.708-1.588-1.587v-6.35c0-.88.708-1.588 1.588-1.588z" style="display:inline;fill:#dedede;fill-opacity:0;stroke:#4a90d9;stroke-width:0;stroke-linecap:square" transform="matrix(3.77953 0 0 3.77953 -11107.556 3130.585)"/><text xml:space="preserve" x="3056.462" y="-901.547" style="font-style:normal;font-variant:normal;font-weight:400;font-stretch:normal;font-size:3.88056px;line-height:0%;font-family:Cantarell;-inkscape-font-specification:Cantarell;text-align:start;letter-spacing:0;word-spacing:0;text-anchor:start;display:inline;fill:#ededed;fill-opacity:1;stroke:none;stroke-width:.202079" transform="matrix(3.77953 0 0 3.77953 -11107.556 3130.585)"><tspan x="3056.462" y="-901.547" style="font-weight:400;font-size:3.88056px;line-height:1.25;text-align:start;text-anchor:start;fill:#ededed;fill-opacity:1;stroke-width:.202079">Recent</tspan></text><text xml:space="preserve" x="3056.462" y="-911.877" style="font-style:normal;font-variant:normal;font-weight:400;font-stretch:normal;font-size:3.88056px;line-height:0%;font-family:Cantarell;-inkscape-font-specification:Cantarell;text-align:start;letter-spacing:0;word-spacing:0;text-anchor:start;display:inline;fill:#2e3436;fill-opacity:1;stroke:none;stroke-width:.202079" transform="matrix(3.77953 0 0 3.77953 -11107.556 3130.585)"><tspan x="3056.462" y="-911.877" style="font-weight:400;font-size:3.88056px;line-height:1.25;text-align:start;text-anchor:start;fill:#2e3436;fill-opacity:1;stroke-width:.202079">Home</tspan></text><g style="stroke-width:.763762" transform="translate(-833.072 246.102)"><path d="M1264.973-558.995c1.662 0 3-1.338 3-3v-6c0-.931-.413-1.813-1.128-2.409l-4.464-3.72c-.816-.68-2-.68-2.817 0l-4.463 3.72a3.134 3.134 0 0 0-1.128 2.409v6c0 1.662 1.338 3 3 3zm-9-3v-6c0-.336.15-.657.408-.872l4.464-3.72a.201.201 0 0 1 .256 0l4.464 3.72c.258.215.408.536.408.872v6c0 .547-.453 1-1 1h-8c-.547 0-1-.453-1-1z" style="fill:#c0bfbc;fill-rule:nonzero;stroke:none;stroke-width:1.52752;stroke-linecap:round;stroke-linejoin:round;stroke-opacity:1"/><rect width="4" height="7" x="1258.973" y="-566.995" rx="1" ry="1" style="fill:#c0bfbc;fill-opacity:1;stroke:none;stroke-width:1.52752;stroke-linecap:round;stroke-linejoin:round;stroke-opacity:0"/><path d="M1253-575h16v16h-16z" style="fill:none;stroke-width:.763762"/></g></g><path d="M438.91-354.834H700.8c12.743 0 23 10.242 23 22.963 0 12.722-10.257 22.963-23 22.963H462.173c-12.742 0-22.552-10.249-23-22.963z" style="fill:#3584e4;stroke:#fff;stroke-width:0;stroke-linecap:round"/><path d="M487.372-324.354c3.904 0 6.069-1.867 6.069-4.817 0-5.412-7.28-3.778-7.28-5.963 0-.743.829-1.146 2.272-1.146 1.188 0 2.504.212 3.544.573l1.018-2.93c-1.23-.55-2.865-.87-4.371-.87-3.735 0-6.282 1.953-6.282 4.924 0 5.009 7.237 3.587 7.237 5.857 0 .68-.637 1.062-2.059 1.062-1.337 0-2.95-.255-4.414-.87l-1.019 3.013c1.507.68 3.46 1.167 5.285 1.167zm13.454 0c1.273 0 2.61-.233 3.926-.679l-.806-2.483c-.87.297-1.698.446-2.547.446-2.058 0-3.013-.892-3.013-3.035 0-1.57.551-2.377 1.591-2.377.955 0 1.507.616 1.507 1.72h-3.544v2.015h6.855c.085-.53.148-1.06.148-1.613 0-3.034-1.74-4.817-4.711-4.817-3.29 0-5.475 2.165-5.475 5.433 0 3.353 2.292 5.39 6.07 5.39zm12.755-.212h2.652v-5.772c0-3.141-1.74-4.839-5.135-4.839-1.613 0-3.311.382-4.627 1.019l.849 2.483c1.082-.382 2.08-.573 2.992-.573 1.486 0 2.335.509 2.335 1.485v3.46zm-3.566.212c2.101 0 3.544-1.082 4.245-3.29l-1.125-.487a2.156 2.156 0 0 1-1.846 1.04c-.743 0-1.253-.382-1.253-.934 0-.722.892-.998 3.269-.998v-1.825c-4.796 0-6.961 1.04-6.961 3.353 0 1.89 1.422 3.141 3.671 3.141zm8.616-.212h3.672v-6.345l-.807-4.054h-2.865zm3.014-5.136c.573-1.21 1.57-1.91 2.716-1.91.467 0 1.061.106 1.486.255l.827-3.353c-.424-.212-1.06-.34-1.697-.34-1.337 0-2.568.722-3.332 1.953zm11.375 5.348c1.273 0 2.355-.254 3.438-.806l-.807-2.483a4.84 4.84 0 0 1-1.846.36c-1.719 0-2.695-.912-2.695-2.546 0-1.464.785-2.292 2.355-2.292.7 0 1.55.149 2.186.36l.743-2.843c-.849-.36-2.016-.573-3.12-.573-3.607 0-5.9 2.165-5.9 5.603 0 3.289 2.102 5.22 5.646 5.22zm11.778-.212h3.671v-6.24c0-2.694-1.422-4.286-3.799-4.286-1.485 0-2.758.658-3.607 2.08l.403 2.186c.53-.786 1.104-1.083 1.825-1.083 1.061 0 1.507.552 1.507 1.72zm-6.558 0h3.608v-15.683h-3.608zm17.063 0h10.568v-3.226h-6.897v-2.631h6.303v-3.226h-6.303v-2.42h6.897v-3.225h-10.568zm15.513 0h3.671l4.032-10.399h-3.692l-2.356 7.767h.488l-2.1-7.767h-4.033zm14.367.212c1.273 0 2.61-.233 3.926-.679l-.806-2.483c-.87.297-1.698.446-2.547.446-2.059 0-3.014-.892-3.014-3.035 0-1.57.552-2.377 1.592-2.377.955 0 1.507.616 1.507 1.72h-3.544v2.015h6.854c.085-.53.149-1.06.149-1.613 0-3.034-1.74-4.817-4.711-4.817-3.29 0-5.475 2.165-5.475 5.433 0 3.353 2.291 5.39 6.069 5.39zm6.133-.212h3.671v-6.345l-.806-4.054h-2.865zm3.014-5.136c.573-1.21 1.57-1.91 2.716-1.91.467 0 1.061.106 1.485.255l.828-3.353c-.424-.212-1.061-.34-1.698-.34-1.337 0-2.567.722-3.331 1.953zm7.024 9.741h3.99l1.613-4.605 3.926-10.399h-3.65l-2.526 8.531.891.022-2.292-8.552h-4.053l3.99 10.398zm12.945-4.605h3.46l2.376-8.107h-1.103l2.674 8.107h3.65l3.501-10.399h-3.565l-2.27 8.574h1.252l-2.59-8.531h-3.501l-2.526 8.743h1.125l-2.122-8.786h-3.968zm22.347 0h3.671v-6.24c0-2.694-1.422-4.286-3.798-4.286-1.486 0-2.76.658-3.608 2.08l.403 2.186c.53-.786 1.104-1.083 1.825-1.083 1.061 0 1.507.552 1.507 1.72zm-6.558 0h3.608v-15.683h-3.608zm18.081.212c1.274 0 2.61-.233 3.926-.679l-.806-2.483c-.87.297-1.698.446-2.547.446-2.058 0-3.013-.892-3.013-3.035 0-1.57.552-2.377 1.591-2.377.955 0 1.507.616 1.507 1.72h-3.544v2.015h6.855c.085-.53.148-1.06.148-1.613 0-3.034-1.74-4.817-4.71-4.817-3.29 0-5.476 2.165-5.476 5.433 0 3.353 2.292 5.39 6.07 5.39zm6.133-.212h3.672v-6.345l-.807-4.054h-2.865zm3.014-5.136c.573-1.21 1.57-1.91 2.716-1.91.467 0 1.061.106 1.486.255l.827-3.353c-.424-.212-1.06-.34-1.697-.34-1.337 0-2.568.722-3.332 1.953zm11.8 5.348c1.273 0 2.61-.233 3.925-.679l-.806-2.483c-.87.297-1.698.446-2.547.446-2.058 0-3.013-.892-3.013-3.035 0-1.57.551-2.377 1.591-2.377.955 0 1.507.616 1.507 1.72h-3.544v2.015h6.855c.085-.53.148-1.06.148-1.613 0-3.034-1.74-4.817-4.711-4.817-3.29 0-5.475 2.165-5.475 5.433 0 3.353 2.292 5.39 6.07 5.39z" aria-label="Search Everywhere" style="font-weight:800;font-size:26.6667px;line-height:145%;font-family:Cantarell;-inkscape-font-specification:&quot;Cantarell Ultra-Bold&quot;;text-align:center;letter-spacing:0;word-spacing:0;text-anchor:middle;fill:#fff;stroke-width:.763762"/><g style="fill:#a4a4a4;fill-opacity:1;stroke-width:.763762" transform="translate(-144.052 -558.868)"><path d="M1224 184h16v16h-16z" style="fill:none;fill-opacity:1;stroke-width:.763762"/><path d="M1235.5 185a3.515 3.515 0 0 0-3.5 3.5c0 1.921 1.579 3.5 3.5 3.5s3.5-1.579 3.5-3.5-1.579-3.5-3.5-3.5zm0 2c.84 0 1.5.66 1.5 1.5s-.66 1.5-1.5 1.5-1.5-.66-1.5-1.5.66-1.5 1.5-1.5zM1228.5 192a3.515 3.515 0 0 0-3.5 3.5c0 1.921 1.579 3.5 3.5 3.5a3.516 3.516 0 0 0 3.158-2h5.842c.831 0 1.5-.669 1.5-1.5s-.669-1.5-1.5-1.5h-5.842a3.516 3.516 0 0 0-3.158-2zm0 2c.84 0 1.5.66 1.5 1.5s-.66 1.5-1.5 1.5-1.5-.66-1.5-1.5.66-1.5 1.5-1.5z" style="color:#000;fill:#a4a4a4;fill-opacity:1;stroke-width:.763762;stroke-linecap:square;stroke-linejoin:round;stroke-dashoffset:2;-inkscape-stroke:none"/><path d="M1226.5 187c-.831 0-1.5.669-1.5 1.5s.669 1.5 1.5 1.5h4.768a4.5 4.5 0 0 1-.268-1.5c0-.512.094-1.019.268-1.5z" style="fill:#a4a4a4;fill-opacity:1;stroke:none;stroke-width:1.52752;stroke-linecap:square;stroke-linejoin:round;stroke-dasharray:none;stroke-dashoffset:2;stroke-opacity:1"/></g><g style="stroke-width:.763762" transform="matrix(3.77953 0 0 3.77953 -11107.089 3130.624)"><path fill="#2e3436" d="M3248.814-927.228a.264.264 0 0 0-.265.264v.53c0 .146.118.264.265.264h.529a.264.264 0 0 0 .264-.264v-.53a.264.264 0 0 0-.264-.264zm1.322.264v.53h2.117v-.53zm-1.322 1.063a.264.264 0 0 0-.265.264v.524c0 .146.118.265.265.265h.529a.264.264 0 0 0 .264-.265v-.524a.264.264 0 0 0-.264-.264zm1.322.26v.53h2.117v-.53zm-1.322 1.059a.264.264 0 0 0-.265.264v.524c0 .146.118.265.265.265h.529a.264.264 0 0 0 .264-.265v-.524a.264.264 0 0 0-.264-.264zm1.322.26v.53h2.117v-.53zm0 0" style="stroke-width:.202079"/><path fill="#2e3436" d="m3259.403-926.172-1.587 1.587-1.588-1.587zm0 0" style="stroke:none;stroke-width:.202079;stroke-opacity:1"/><rect width="8.996" height="8.996" x="3245.903" y="-929.875" fill="none" rx="1.588" ry="1.587" style="color:#000;display:inline;overflow:visible;visibility:visible;fill:#000;fill-opacity:0;fill-rule:nonzero;stroke:none;stroke-width:.202079;stroke-linecap:butt;stroke-linejoin:miter;stroke-miterlimit:4;stroke-dasharray:none;stroke-dashoffset:0;stroke-opacity:0;marker:none;enable-background:accumulate"/><path d="M3255.031-928.294v5.821" style="fill:none;stroke:#323232;stroke-width:.202079px;stroke-linecap:butt;stroke-linejoin:miter;stroke-opacity:.303293"/><rect width="5.292" height="8.996" x="3255.169" y="-929.875" fill="none" rx="1.587" ry="1.587" style="color:#000;display:inline;overflow:visible;visibility:visible;fill:#000;fill-opacity:0;fill-rule:nonzero;stroke:none;stroke-width:.202079;stroke-linecap:butt;stroke-linejoin:miter;stroke-miterlimit:4;stroke-dasharray:none;stroke-dashoffset:0;stroke-opacity:0;marker:none;enable-background:accumulate"/></g></g></svg>