<svg xmlns="http://www.w3.org/2000/svg" width="1024" height="160"><path d="M-8.809-10.34h1050.87v217.08H-8.809Z" style="font-variation-settings:&quot;wght&quot;300;fill:#3584e4;fill-opacity:.326092;stroke:none;stroke-width:1.12447px;-inkscape-stroke:none;stop-color:#000"/><rect width="43.22" height="43.22" x="428.209" y="40.218" fill="none" rx="7.858" ry="7.858" style="color:#000;display:inline;overflow:visible;visibility:visible;fill:#df9c9d;fill-opacity:0;fill-rule:nonzero;stroke:#df9c9d;stroke-width:.999999;stroke-linecap:butt;stroke-linejoin:miter;stroke-miterlimit:4;stroke-dasharray:none;stroke-dashoffset:0;stroke-opacity:0;marker:none;enable-background:accumulate"/><rect width="43.22" height="43.22" x="428.209" y="40.218" fill="none" rx="7.858" ry="7.858" style="color:#000;display:inline;overflow:visible;visibility:visible;fill:#df9c9d;fill-opacity:0;fill-rule:nonzero;stroke:#df9c9d;stroke-width:.999999;stroke-linecap:butt;stroke-linejoin:miter;stroke-miterlimit:4;stroke-dasharray:none;stroke-dashoffset:0;stroke-opacity:0;marker:none;enable-background:accumulate"/><g style="stroke-width:.763533" transform="matrix(0 1.3097 1.3097 0 186.595 -162.312)"><path d="M165.137 199.004a1 1 0 0 0-.71.293 1 1 0 0 0 0 1.414l6 6a1 1 0 0 0 1.417 0l6-6a1 1 0 0 0 0-1.414 1 1 0 0 0-1.416 0l-5.291 5.293-5.293-5.293a1 1 0 0 0-.707-.293z" style="fill:#2e3436;fill-opacity:1;stroke-width:.763533"/><path d="M163.136 195.003h16v16h-16z" style="fill:none;fill-opacity:1;stroke-width:.763533"/></g><g style="stroke-width:.763533" transform="rotate(90 416.752 254.44) scale(1.3097)"><path d="M165.137 199.004a1 1 0 0 0-.71.293 1 1 0 0 0 0 1.414l6 6a1 1 0 0 0 1.417 0l6-6a1 1 0 0 0 0-1.414 1 1 0 0 0-1.416 0l-5.291 5.293-5.293-5.293a1 1 0 0 0-.707-.293z" style="fill:#2e3436;fill-opacity:1;stroke-width:.763533"/><path d="M163.136 195.003h16v16h-16z" style="fill:none;fill-opacity:1;stroke-width:.763533"/></g><rect width="1152.537" height="198.741" x="83.121" y="17.297" rx="24.962" ry="24.962" style="display:inline;fill:#000;fill-opacity:.283919;stroke:#fafafa;stroke-width:0;stroke-miterlimit:4;stroke-dasharray:none;stroke-opacity:1"/><rect width="1126.078" height="185.645" x="96.482" y="30.394" rx="11.787" ry="11.787" style="display:inline;fill:#fff;fill-opacity:1;stroke:#fafafa;stroke-width:0;stroke-miterlimit:4;stroke-dasharray:none;stroke-opacity:1"/><rect width="43.22" height="43.22" x="1169.501" y="40.218" fill="none" rx="7.858" ry="7.858" style="color:#000;display:inline;overflow:visible;visibility:visible;fill:#e01b24;fill-opacity:0;fill-rule:nonzero;stroke:#e01b24;stroke-width:.999999;stroke-linecap:butt;stroke-linejoin:miter;stroke-miterlimit:4;stroke-dasharray:none;stroke-dashoffset:0;stroke-opacity:0;marker:none;enable-background:accumulate"/><circle cx="1191.111" cy="61.828" r="14.407" style="fill:#000;fill-opacity:.0769432;stroke:#646464;stroke-width:0;stroke-linecap:round;stroke-dasharray:none;stroke-opacity:.621392"/><g style="stroke-width:.763533" transform="translate(1180.66 51.346) scale(1.3097)"><path d="M0 0h16v16H0z" style="fill:none;stroke-width:.763533"/><path d="M4 4h1.031c.255.011.51.129.688.313L8 6.592l2.313-2.28c.265-.231.446-.306.687-.313h1v1c0 .286-.034.55-.25.75L9.469 8.031l2.25 2.25c.188.188.281.454.281.719v1h-1c-.265 0-.53-.093-.719-.281L8 9.438l-2.281 2.28A1.015 1.015 0 0 1 5 12H4v-1c0-.265.093-.53.281-.719l2.282-2.25L4.28 5.75A.909.909 0 0 1 4 5Z" style="fill:#2e3436;fill-opacity:1;stroke-width:.763533"/></g><rect width="43.22" height="43.22" x="383.675" y="40.218" fill="none" rx="7.858" ry="7.858" style="color:#000;display:inline;overflow:visible;visibility:visible;fill:#df9c9d;fill-opacity:0;fill-rule:nonzero;stroke:#df9c9d;stroke-width:.999999;stroke-linecap:butt;stroke-linejoin:miter;stroke-miterlimit:4;stroke-dasharray:none;stroke-dashoffset:0;stroke-opacity:0;marker:none;enable-background:accumulate"/><rect width="43.22" height="43.22" x="383.675" y="40.218" fill="none" rx="7.858" ry="7.858" style="color:#000;display:inline;overflow:visible;visibility:visible;fill:#df9c9d;fill-opacity:0;fill-rule:nonzero;stroke:#df9c9d;stroke-width:.999999;stroke-linecap:butt;stroke-linejoin:miter;stroke-miterlimit:4;stroke-dasharray:none;stroke-dashoffset:0;stroke-opacity:0;marker:none;enable-background:accumulate"/><path d="M108.036 30.39h264.56v176.35H96.249V42.177c0-6.53 5.257-11.788 11.788-11.788z" style="display:inline;fill:#ebebeb;fill-opacity:1;stroke:#fafafa;stroke-width:0"/><g style="stroke-width:.763533"><g style="fill:#9a9996;fill-opacity:0;stroke-width:.763533"><rect width="8.996" height="8.996" x="2968.89" y="-1022.477" fill="none" rx="1.587" ry="1.587" style="display:inline;fill:#9a9996;fill-opacity:0;stroke:#4a90d9;stroke-width:0;stroke-linecap:square;stroke-miterlimit:4;stroke-dasharray:none;stroke-dashoffset:0;stroke-opacity:1" transform="matrix(4.95005 0 0 4.95005 -14377.281 5100.873)"/></g><g style="stroke-width:.763533" transform="rotate(90 384.667 222.355) scale(1.3097)"><path d="M-210.003 165.136h14v2h-14zM-210.003 170.136h14v2h-14zM-210.003 175.136h14v2h-14z" style="fill:#2e3436;fill-opacity:1;stroke-width:.763533;stroke-dasharray:6.10826,6.10826" transform="rotate(-90)"/><path d="M163.136 195.003h16v16h-16z" style="fill:none;fill-opacity:1;stroke-width:.763533"/></g></g><path d="M373.252 30.393V216.04" style="fill:none;stroke:#c8c5c5;stroke-width:.999999px;stroke-linecap:butt;stroke-linejoin:miter;stroke-opacity:.360784"/><rect width="440.069" height="41.91" x="578.199" y="40.865" rx="6.616" ry="6.616" style="fill:#000;fill-opacity:.06;stroke:#99c1f1;stroke-width:2.00001;stroke-linecap:round;stroke-dasharray:none;stroke-dashoffset:0;stroke-opacity:1"/><g style="stroke-width:.763533" transform="translate(444.589 -823.565) scale(1.3097)"><path d="M112.006 668h16v16h-16z" style="fill:none;stroke-width:.763533"/><path d="M118.578 668.064c-3.578 0-6.5 2.922-6.5 6.5s2.922 6.498 6.5 6.498c1.43 0 2.755-.466 3.83-1.254l2.973 2.972c.958.938 2.365-.499 1.406-1.437l-2.959-2.96a6.455 6.455 0 0 0 1.25-3.82c0-3.577-2.922-6.5-6.5-6.5zm0 2c2.497 0 4.5 2.003 4.5 4.5a4.483 4.483 0 0 1-4.5 4.498 4.483 4.483 0 0 1-4.5-4.498c0-2.497 2.003-4.5 4.5-4.5z" style="fill:#2e3436;fill-opacity:1;stroke-width:.763533"/><path d="M112.006 668h16v16h-16z" style="opacity:.706383;fill:none;stroke-width:.763533"/></g><path d="M622.1 47.384v28.813" style="fill:none;stroke:#2e3436;stroke-width:.999999px;stroke-linecap:butt;stroke-linejoin:miter;stroke-opacity:1"/><rect width="36.672" height="36.672" x="975.057" y="43.482" fill="none" rx="7.858" ry="7.858" style="display:inline;fill:#000;fill-opacity:0;stroke:#4a90d9;stroke-width:0;stroke-linecap:square;stroke-miterlimit:4;stroke-dasharray:none;stroke-dashoffset:0;stroke-opacity:1"/><path d="M629.757 69.014c2.977 0 4.917-1.518 4.917-3.861 0-4.726-7.472-2.843-7.472-6.282 0-1.402 1.133-2.17 3.17-2.17 1.133 0 2.362.23 3.323.634l.48-1.249a9.259 9.259 0 0 0-3.688-.768c-2.978 0-4.918 1.479-4.918 3.803 0 4.572 7.453 2.862 7.453 6.262 0 1.345-1.152 2.21-3.17 2.21-1.21 0-2.708-.327-4.014-.865l-.48 1.248c1.48.673 2.977 1.038 4.399 1.038zm11.333 0c1.057 0 2.21-.25 3.035-.692l-.346-1.114a5.803 5.803 0 0 1-2.42.557c-2.17 0-3.458-1.44-3.458-3.842 0-2.093.942-3.246 2.632-3.246 1.575 0 2.497 1.018 2.497 2.785h-5.398v1.153h6.762c.038-.288.077-.96.077-1.326 0-2.324-1.537-3.918-3.823-3.918-2.574 0-4.322 2.017-4.322 4.86 0 2.958 1.825 4.783 4.764 4.783zm11.698-.192h1.076v-6.013c0-2.209-1.306-3.438-3.726-3.438-1.21 0-2.517.326-3.516.883l.384 1.134c.96-.423 1.921-.634 2.824-.634 1.652 0 2.497.691 2.497 2.055v4.937zm-3.284.192c2.209 0 3.88-1.383 4.149-3.439l-.557-.269c-.288 1.422-1.556 2.363-3.15 2.363-1.23 0-2.037-.615-2.037-1.537 0-1.171 1.364-1.652 4.649-1.652v-1.056c-4.322 0-6.185.864-6.185 2.881 0 1.652 1.229 2.709 3.13 2.709zm7.395-.192h1.537v-7.108l-.27-2.151H656.9zm1.191-6.013a3.173 3.173 0 0 1 2.92-1.882c.365 0 .71.057 1.018.173l.384-1.422a3.846 3.846 0 0 0-1.23-.211c-1.248 0-2.4.672-3.092 1.786zm9.681 6.205c1.115 0 2.267-.27 3.035-.73l-.345-1.114c-.769.365-1.614.576-2.325.576-1.92 0-3.015-1.345-3.015-3.592 0-2.228 1.075-3.439 2.996-3.439.73 0 1.556.173 2.324.519l.365-1.249a6.175 6.175 0 0 0-2.67-.614c-2.746 0-4.59 2.036-4.59 5.09 0 2.862 1.575 4.553 4.225 4.553zm11.66-.192h1.537v-6.07c0-2.056-1.364-3.381-3.438-3.381-1.345 0-2.67.576-3.65 1.71l.365.979c.768-.903 1.786-1.345 2.862-1.345 1.498 0 2.324.846 2.324 2.344zm-6.32 0h1.537V54.626h-1.536zm19.286.192c1.057 0 2.21-.25 3.035-.692l-.345-1.114a5.802 5.802 0 0 1-2.42.557c-2.171 0-3.458-1.44-3.458-3.842 0-2.093.94-3.246 2.631-3.246 1.575 0 2.497 1.018 2.497 2.785h-5.397v1.153h6.761c.039-.288.077-.96.077-1.326 0-2.324-1.537-3.918-3.822-3.918-2.574 0-4.322 2.017-4.322 4.86 0 2.958 1.824 4.783 4.763 4.783zm8.26-.192h1.499l3.61-9.26h-1.536l-3.208 8.952h.845l-3.15-8.951h-1.71zm11.103.192c1.057 0 2.21-.25 3.035-.692l-.346-1.114a5.803 5.803 0 0 1-2.42.557c-2.17 0-3.458-1.44-3.458-3.842 0-2.093.942-3.246 2.632-3.246 1.575 0 2.497 1.018 2.497 2.785h-5.398v1.153h6.762c.038-.288.077-.96.077-1.326 0-2.324-1.537-3.918-3.823-3.918-2.574 0-4.322 2.017-4.322 4.86 0 2.958 1.825 4.783 4.764 4.783zm5.974-.192h1.537v-7.108l-.27-2.151h-1.267zm1.191-6.013a3.173 3.173 0 0 1 2.92-1.882c.365 0 .71.057 1.018.173l.384-1.422a3.846 3.846 0 0 0-1.23-.211c-1.248 0-2.4.672-3.092 1.786zm6.666 10.18h1.632l1.537-4.167 3.611-9.26h-1.536l-2.997 8.338h.403l-2.92-8.337h-1.709l3.65 9.259zm10.468-4.167h1.518l2.862-8.452h-.691l3.015 8.452h1.556l3.055-9.26h-1.537l-2.613 8.587h.692l-2.881-8.548h-1.69l-2.786 8.548h.595l-2.535-8.586h-1.748zm19.498 0h1.536v-6.07c0-2.056-1.364-3.381-3.438-3.381-1.345 0-2.67.576-3.65 1.71l.365.979c.769-.903 1.787-1.345 2.862-1.345 1.499 0 2.325.846 2.325 2.344zm-6.32 0h1.537V54.626h-1.537zm15.06.192c1.056 0 2.209-.25 3.035-.692l-.346-1.114a5.802 5.802 0 0 1-2.42.557c-2.171 0-3.458-1.44-3.458-3.842 0-2.093.941-3.246 2.632-3.246 1.575 0 2.497 1.018 2.497 2.785h-5.398v1.153h6.762c.038-.288.076-.96.076-1.326 0-2.324-1.536-3.918-3.822-3.918-2.574 0-4.322 2.017-4.322 4.86 0 2.958 1.825 4.783 4.764 4.783zm5.974-.192h1.536v-7.108l-.269-2.151h-1.267zm1.19-6.013a3.173 3.173 0 0 1 2.92-1.882c.365 0 .711.057 1.018.173l.385-1.422a3.846 3.846 0 0 0-1.23-.211c-1.248 0-2.4.672-3.092 1.786zm10.22 6.205c1.056 0 2.209-.25 3.035-.692l-.346-1.114a5.802 5.802 0 0 1-2.42.557c-2.17 0-3.458-1.44-3.458-3.842 0-2.093.941-3.246 2.632-3.246 1.575 0 2.497 1.018 2.497 2.785h-5.398v1.153h6.762c.038-.288.077-.96.077-1.326 0-2.324-1.537-3.918-3.823-3.918-2.574 0-4.322 2.017-4.322 4.86 0 2.958 1.825 4.783 4.764 4.783z" aria-label="Search everywhere" style="font-size:14.6667px;line-height:1.25;font-family:Cantarell;-inkscape-font-specification:Cantarell;letter-spacing:0;word-spacing:0;fill-opacity:.363302;stroke-width:.999999"/><rect width="44.53" height="44.53" x="105.411" y="39.555" rx="7.858" ry="7.858" style="display:inline;fill:#000;fill-opacity:.0969558;stroke:#4a90d9;stroke-width:0;stroke-linecap:square;stroke-miterlimit:4;stroke-dasharray:none;stroke-dashoffset:0;stroke-opacity:1"/><g style="stroke-width:.763533" transform="translate(-29.496 -823.538) scale(1.3097)"><path d="M112.006 668h16v16h-16z" style="fill:none;stroke-width:.763533"/><path d="M118.578 668.064c-3.578 0-6.5 2.922-6.5 6.5s2.922 6.498 6.5 6.498c1.43 0 2.755-.466 3.83-1.254l2.973 2.972c.958.938 2.365-.499 1.406-1.437l-2.959-2.96a6.455 6.455 0 0 0 1.25-3.82c0-3.577-2.922-6.5-6.5-6.5zm0 2c2.497 0 4.5 2.003 4.5 4.5a4.483 4.483 0 0 1-4.5 4.498 4.483 4.483 0 0 1-4.5-4.498c0-2.497 2.003-4.5 4.5-4.5z" style="fill:#2e3436;fill-opacity:1;stroke-width:.763533"/><path d="M112.006 668h16v16h-16z" style="opacity:.706383;fill:none;stroke-width:.763533"/></g><path d="M214.682 67.292h2.497V61.76h5.782v-2.17h-5.782V56.13h6.396v-2.17h-8.893zm10.949 0h2.44v-9.336h-2.44zm1.229-11.045c.922 0 1.518-.596 1.518-1.518s-.596-1.517-1.518-1.517c-.903 0-1.498.595-1.498 1.517 0 .922.595 1.518 1.498 1.518zm6.608 11.199c.595 0 1.287-.135 1.786-.346l-.5-1.652a1.805 1.805 0 0 1-.595.115c-.576 0-.883-.365-.883-1.018V53.096h-2.42v11.756c0 1.614.98 2.594 2.612 2.594zm7.799.038c1.114 0 2.286-.211 3.304-.634l-.538-1.71c-.75.308-1.575.48-2.363.48-2.017 0-3.092-1.113-3.092-3.284 0-1.748.73-2.67 2.036-2.67 1.21 0 1.901.768 1.901 2.151h-4.264v1.499h6.473c.058-.385.096-.96.096-1.403 0-2.535-1.556-4.149-4.033-4.149-2.786 0-4.65 1.998-4.65 4.899 0 2.996 1.941 4.821 5.13 4.821zm8.817 0c2.574 0 4.091-1.114 4.091-2.997 0-3.496-5.282-2.305-5.282-3.88 0-.576.653-.922 1.805-.922.769 0 1.69.154 2.555.404l.5-1.845c-.865-.307-1.96-.48-3.016-.48-2.67 0-4.226 1.095-4.226 2.997 0 3.477 5.225 2.151 5.225 3.86 0 .596-.634.961-1.69.961-.904 0-2.133-.25-3.113-.634l-.557 1.825c1.076.442 2.44.711 3.708.711z" aria-label="Files" style="font-weight:700;font-size:14.6667px;line-height:1.25;font-family:Cantarell;-inkscape-font-specification:Cantarell;text-align:center;letter-spacing:0;word-spacing:0;text-anchor:middle;fill:#2e3436;stroke-width:.999999"/><g style="stroke-width:.763533" transform="translate(-29.496 -823.538) scale(1.3097)"><path d="M112.006 668h16v16h-16z" style="fill:none;stroke-width:.763533"/><path d="M118.578 668.064c-3.578 0-6.5 2.922-6.5 6.5s2.922 6.498 6.5 6.498c1.43 0 2.755-.466 3.83-1.254l2.973 2.972c.958.938 2.365-.499 1.406-1.437l-2.959-2.96a6.455 6.455 0 0 0 1.25-3.82c0-3.577-2.922-6.5-6.5-6.5zm0 2c2.497 0 4.5 2.003 4.5 4.5a4.483 4.483 0 0 1-4.5 4.498 4.483 4.483 0 0 1-4.5-4.498c0-2.497 2.003-4.5 4.5-4.5z" style="fill:#2e3436;fill-opacity:1;stroke-width:.763533"/><path d="M112.006 668h16v16h-16z" style="opacity:.706383;fill:none;stroke-width:.763533"/></g><g style="stroke-width:.763533"><path d="M3048.655-907.637h49.212c.88 0 1.588.708 1.588 1.588v6.35c0 .88-.708 1.587-1.588 1.587h-49.212c-.88 0-1.588-.708-1.588-1.587v-6.35c0-.88.708-1.588 1.588-1.588z" style="display:inline;fill:#fafafa;stroke:#4a90d9;stroke-width:0;stroke-linecap:square" transform="matrix(4.95005 0 0 4.95005 -14979.082 4642.436)"/><path d="M3048.655-907.637h49.212c.88 0 1.588.708 1.588 1.588v6.35c0 .88-.708 1.587-1.588 1.587h-49.212c-.88 0-1.588-.708-1.588-1.587v-6.35c0-.88.708-1.588 1.588-1.588z" style="display:inline;fill:#ebebeb;stroke:#4a90d9;stroke-width:0;stroke-linecap:square" transform="matrix(4.95005 0 0 4.95005 -14979.082 4642.436)"/><g style="display:inline;fill:#2e3436;stroke-width:.763533"><path fill="none" d="M114 201h16v16h-16z" style="display:inline;overflow:visible;opacity:.6;fill-opacity:0;stroke-width:.763533;marker:none;enable-background:accumulate" transform="translate(-30.82 -100.575) scale(1.3097)"/><g style="display:inline;fill:#2e3436;fill-opacity:1;stroke-width:.763533"><g style="fill:#2e3436;fill-opacity:1;stroke-width:.763533"><path d="M47.5 688.013a7.492 7.492 0 0 0-7.487 7.487 7.492 7.492 0 0 0 7.487 7.487 7.492 7.492 0 0 0 7.487-7.487 7.492 7.492 0 0 0-7.487-7.487zm0 1.974a5.508 5.508 0 0 1 5.513 5.513 5.508 5.508 0 0 1-5.513 5.513 5.508 5.508 0 0 1-5.513-5.513 5.508 5.508 0 0 1 5.513-5.513z" style="color:#000;font-style:normal;font-variant:normal;font-weight:400;font-stretch:normal;font-size:medium;line-height:normal;font-family:Sans;-inkscape-font-specification:Sans;text-indent:0;text-align:start;text-decoration:none;text-decoration-line:none;letter-spacing:normal;word-spacing:normal;text-transform:none;writing-mode:lr-tb;direction:ltr;baseline-shift:baseline;text-anchor:start;display:inline;overflow:visible;visibility:visible;fill:#2e3436;fill-opacity:1;stroke:none;stroke-width:1.64453;marker:none;enable-background:accumulate" transform="translate(66.115 -737.072) scale(1.3097)"/><path d="M50.406 692a.5.5 0 0 0-.25.156l-2.656 2.657-1.656-1.657a.5.5 0 1 0-.688.688l2 2a.5.5 0 0 0 .688 0l3-3a.5.5 0 0 0-.438-.844Z" style="color:#000;font-style:normal;font-variant:normal;font-weight:400;font-stretch:normal;font-size:medium;line-height:normal;font-family:Sans;-inkscape-font-specification:Sans;text-indent:0;text-align:start;text-decoration:none;text-decoration-line:none;letter-spacing:normal;word-spacing:normal;text-transform:none;writing-mode:lr-tb;direction:ltr;baseline-shift:baseline;text-anchor:start;display:inline;overflow:visible;visibility:visible;fill:#2e3436;fill-opacity:1;stroke:none;stroke-width:.763533;marker:none;enable-background:accumulate" transform="translate(66.115 -737.072) scale(1.3097)"/></g></g></g><path fill="none" d="M3048.655-917.967h49.212c.88 0 1.588.708 1.588 1.588v6.35c0 .88-.708 1.587-1.588 1.587h-49.212c-.88 0-1.588-.708-1.588-1.587v-6.35c0-.88.708-1.588 1.588-1.588z" style="display:inline;fill:#dedede;fill-opacity:0;stroke:#4a90d9;stroke-width:0;stroke-linecap:square" transform="matrix(4.95005 0 0 4.95005 -14979.082 4642.436)"/><path d="M3056.82-901.547h.321v-2.414h.532c.384 0 .61.198.61.532 0 .33-.202.52-.571.52h-.687v.271h.648c.559 0 .94-.353.94-.85 0-.473-.35-.752-.901-.752h-.893zm1.563 0h.385l-.746-1.273h-.368zm1.65.039c.213 0 .446-.05.613-.14l-.07-.225c-.144.07-.326.112-.49.112-.438 0-.698-.29-.698-.776 0-.423.19-.656.532-.656.318 0 .504.206.504.563h-1.09v.233h1.366c.01-.058.015-.194.015-.268 0-.47-.31-.792-.772-.792-.52 0-.874.408-.874.982 0 .598.37.967.963.967zm1.94 0c.225 0 .458-.055.613-.148l-.07-.225a1.146 1.146 0 0 1-.47.116c-.388 0-.609-.271-.609-.725 0-.45.217-.695.606-.695.147 0 .314.035.469.105l.074-.252a1.247 1.247 0 0 0-.54-.125c-.554 0-.927.412-.927 1.029 0 .578.318.92.854.92zm1.92 0c.214 0 .447-.05.614-.14l-.07-.225c-.144.07-.326.112-.49.112-.438 0-.698-.29-.698-.776 0-.423.19-.656.532-.656.318 0 .504.206.504.563h-1.09v.233h1.366c.01-.058.016-.194.016-.268 0-.47-.31-.792-.772-.792-.52 0-.874.408-.874.982 0 .598.37.967.963.967zm2.484-.04h.31v-1.226c0-.415-.275-.683-.694-.683-.272 0-.54.117-.737.323l.074.197a.805.805 0 0 1 .578-.248c.303 0 .47.17.47.474zm-1.277 0h.311v-1.652l-.093-.218h-.217zm2.841.02a.91.91 0 0 0 .346-.07l-.07-.225a.545.545 0 0 1-.21.043c-.194 0-.322-.124-.322-.31v-1.875h-.31v1.917c0 .31.225.52.566.52zm-.819-1.63h1.075v-.26h-1.075z" aria-label="Recent" style="font-size:3.88056px;line-height:1.25;font-family:Cantarell;-inkscape-font-specification:Cantarell;letter-spacing:0;word-spacing:0;fill:#2e3436;stroke-width:.202018" transform="matrix(4.95005 0 0 4.95005 -14979.082 4642.436)"/><text xml:space="preserve" x="3056.462" y="-911.877" style="font-style:normal;font-variant:normal;font-weight:400;font-stretch:normal;font-size:3.88056px;line-height:0%;font-family:Cantarell;-inkscape-font-specification:Cantarell;text-align:start;letter-spacing:0;word-spacing:0;text-anchor:start;display:inline;fill:#2e3436;fill-opacity:1;stroke:none;stroke-width:.202018" transform="matrix(4.95005 0 0 4.95005 -14979.082 4642.436)"><tspan x="3056.462" y="-911.877" style="font-weight:400;font-size:3.88056px;line-height:1.25;text-align:start;text-anchor:start;fill:#2e3436;fill-opacity:1;stroke-width:.202018">Home</tspan></text><g style="stroke-width:.763533" transform="translate(-1522.572 864.623) scale(1.3097)"><path d="M1264.973-558.995c1.662 0 3-1.338 3-3v-6c0-.931-.413-1.813-1.128-2.409l-4.464-3.72c-.816-.68-2-.68-2.817 0l-4.463 3.72a3.134 3.134 0 0 0-1.128 2.409v6c0 1.662 1.338 3 3 3zm-9-3v-6c0-.336.15-.657.408-.872l4.464-3.72a.201.201 0 0 1 .256 0l4.464 3.72c.258.215.408.536.408.872v6c0 .547-.453 1-1 1h-8c-.547 0-1-.453-1-1z" style="fill:#2e3436;fill-rule:nonzero;stroke:none;stroke-width:1.52707;stroke-linecap:round;stroke-linejoin:round;stroke-opacity:1"/><rect width="4" height="7" x="1258.973" y="-566.995" rx="1" ry="1" style="fill:#2e3436;fill-opacity:1;stroke:none;stroke-width:1.52706;stroke-linecap:round;stroke-linejoin:round;stroke-opacity:0"/><path d="M1253-575h16v16h-16z" style="fill:none;stroke-width:.763533"/></g></g><path d="M143.347 77.576h342.998c16.688 0 30.123 13.414 30.123 30.075s-13.435 30.075-30.123 30.075H173.812c-16.688 0-29.536-13.424-30.123-30.075z" style="fill:#3584e4;stroke:#fff;stroke-width:0;stroke-linecap:round"/><path d="M206.816 117.496c5.115 0 7.95-2.446 7.95-6.31 0-7.087-9.534-4.947-9.534-7.81 0-.973 1.084-1.5 2.974-1.5 1.557 0 3.28.277 4.642.75l1.334-3.836c-1.612-.723-3.752-1.14-5.726-1.14-4.892 0-8.227 2.558-8.227 6.449 0 6.56 9.478 4.697 9.478 7.671 0 .89-.834 1.39-2.696 1.39-1.751 0-3.863-.334-5.781-1.14l-1.334 3.947c1.973.89 4.53 1.529 6.92 1.529zm17.622 0c1.668 0 3.419-.306 5.142-.89l-1.056-3.252c-1.14.39-2.224.584-3.336.584-2.696 0-3.946-1.167-3.946-3.975 0-2.056.722-3.113 2.084-3.113 1.251 0 1.974.807 1.974 2.252h-4.642v2.64h8.978c.11-.695.194-1.39.194-2.112 0-3.975-2.279-6.31-6.17-6.31-4.308 0-7.171 2.836-7.171 7.116 0 4.391 3.002 7.06 7.949 7.06zm16.704-.278h3.475v-7.56c0-4.114-2.28-6.337-6.727-6.337-2.112 0-4.335.5-6.059 1.334l1.112 3.252c1.418-.5 2.724-.75 3.919-.75 1.946 0 3.057.666 3.057 1.945v4.53zm-4.67.278c2.753 0 4.643-1.418 5.56-4.308l-1.473-.64a2.823 2.823 0 0 1-2.418 1.362c-.973 0-1.64-.5-1.64-1.223 0-.945 1.167-1.306 4.28-1.306v-2.39c-6.281 0-9.116 1.362-9.116 4.391 0 2.474 1.862 4.114 4.808 4.114zm11.285-.278h4.809v-8.31l-1.056-5.31h-3.753zm3.947-6.726c.75-1.585 2.057-2.502 3.558-2.502.611 0 1.39.139 1.945.334l1.084-4.392c-.556-.278-1.39-.445-2.223-.445-1.751 0-3.363.945-4.364 2.557zm14.898 7.004c1.668 0 3.085-.334 4.503-1.057l-1.057-3.251a6.34 6.34 0 0 1-2.418.472c-2.251 0-3.53-1.195-3.53-3.335 0-1.918 1.029-3.002 3.086-3.002.917 0 2.029.194 2.862.472l.973-3.724c-1.112-.472-2.64-.75-4.086-.75-4.725 0-7.726 2.835-7.726 7.337 0 4.308 2.751 6.838 7.393 6.838zm15.426-.278h4.808v-8.172c0-3.53-1.862-5.614-4.975-5.614-1.946 0-3.613.861-4.725 2.724l.528 2.862c.695-1.028 1.445-1.417 2.39-1.417 1.39 0 1.974.723 1.974 2.251zm-8.589 0h4.725v-20.54h-4.725zm22.347 0h13.841v-4.225h-9.033v-3.446h8.255v-4.225h-8.255v-3.169h9.033v-4.225h-13.841zm20.317 0h4.809l5.28-13.62h-4.835l-3.086 10.173h.64l-2.752-10.172h-5.28zm18.817.278c1.668 0 3.419-.306 5.142-.89l-1.056-3.252c-1.14.39-2.224.584-3.335.584-2.696 0-3.947-1.167-3.947-3.975 0-2.056.722-3.113 2.084-3.113 1.251 0 1.974.807 1.974 2.252h-4.642v2.64h8.978c.11-.695.194-1.39.194-2.112 0-3.975-2.279-6.31-6.17-6.31-4.308 0-7.17 2.836-7.17 7.116 0 4.391 3 7.06 7.948 7.06zm8.033-.278h4.808v-8.31l-1.056-5.31h-3.752zm3.947-6.726c.75-1.585 2.056-2.502 3.557-2.502.612 0 1.39.139 1.946.334l1.084-4.392c-.556-.278-1.39-.445-2.224-.445-1.75 0-3.363.945-4.363 2.557zm9.2 12.757h5.225l2.112-6.031 5.142-13.62h-4.78l-3.308 11.174 1.167.028-3.002-11.201h-5.308l5.225 13.619zm16.954-6.031h4.53l3.113-10.618h-1.445l3.502 10.618h4.78l4.587-13.62h-4.67l-2.974 11.23h1.64l-3.39-11.174h-4.587l-3.307 11.451h1.473l-2.78-11.507h-5.197zm29.267 0h4.809v-8.172c0-3.53-1.863-5.614-4.975-5.614-1.946 0-3.614.861-4.726 2.724l.529 2.862c.694-1.028 1.445-1.417 2.39-1.417 1.39 0 1.973.723 1.973 2.251zm-8.588 0h4.725v-20.54h-4.725zm23.68.278c1.668 0 3.42-.306 5.142-.89l-1.056-3.252c-1.14.39-2.223.584-3.335.584-2.696 0-3.947-1.167-3.947-3.975 0-2.056.723-3.113 2.085-3.113 1.25 0 1.973.807 1.973 2.252h-4.641v2.64h8.977c.111-.695.195-1.39.195-2.112 0-3.975-2.28-6.31-6.17-6.31-4.309 0-7.172 2.836-7.172 7.116 0 4.391 3.002 7.06 7.95 7.06zm8.033-.278h4.808v-8.31l-1.056-5.31h-3.752zm3.947-6.726c.75-1.585 2.057-2.502 3.557-2.502.612 0 1.39.139 1.946.334l1.084-4.392c-.556-.278-1.39-.445-2.223-.445-1.751 0-3.364.945-4.364 2.557zm15.453 7.004c1.668 0 3.42-.306 5.142-.89l-1.056-3.252c-1.14.39-2.223.584-3.335.584-2.696 0-3.947-1.167-3.947-3.975 0-2.056.723-3.113 2.085-3.113 1.25 0 1.973.807 1.973 2.252h-4.642v2.64h8.978c.111-.695.195-1.39.195-2.112 0-3.975-2.28-6.31-6.17-6.31-4.309 0-7.172 2.836-7.172 7.116 0 4.391 3.002 7.06 7.95 7.06z" aria-label="Search Everywhere" style="font-weight:800;font-size:26.6667px;line-height:145%;font-family:Cantarell;-inkscape-font-specification:&quot;Cantarell Ultra-Bold&quot;;text-align:center;letter-spacing:0;word-spacing:0;text-anchor:middle;fill:#fff;stroke-width:1"/><g style="stroke-width:.763533" transform="translate(-620.16 -189.648) scale(1.3097)"><path d="M1224 184h16v16h-16z" style="fill:none;stroke-width:.763533"/><path d="M1235.5 185a3.515 3.515 0 0 0-3.5 3.5c0 1.921 1.579 3.5 3.5 3.5s3.5-1.579 3.5-3.5-1.579-3.5-3.5-3.5zm0 2c.84 0 1.5.66 1.5 1.5s-.66 1.5-1.5 1.5-1.5-.66-1.5-1.5.66-1.5 1.5-1.5zM1228.5 192a3.515 3.515 0 0 0-3.5 3.5c0 1.921 1.579 3.5 3.5 3.5a3.516 3.516 0 0 0 3.158-2h5.842c.831 0 1.5-.669 1.5-1.5s-.669-1.5-1.5-1.5h-5.842a3.516 3.516 0 0 0-3.158-2zm0 2c.84 0 1.5.66 1.5 1.5s-.66 1.5-1.5 1.5-1.5-.66-1.5-1.5.66-1.5 1.5-1.5z" style="color:#000;fill:#222;fill-opacity:1;stroke-width:.763533;stroke-linecap:square;stroke-linejoin:round;stroke-dashoffset:2;-inkscape-stroke:none"/><path d="M1226.5 187c-.831 0-1.5.669-1.5 1.5s.669 1.5 1.5 1.5h4.768a4.5 4.5 0 0 1-.268-1.5c0-.512.094-1.019.268-1.5z" style="fill:#222;fill-opacity:.35;stroke:none;stroke-width:1.52707;stroke-linecap:square;stroke-linejoin:round;stroke-dasharray:none;stroke-dashoffset:2;stroke-opacity:1"/></g><g style="stroke-width:.763533" transform="matrix(4.95005 0 0 4.95005 -14978.47 4642.486)"><path fill="#2e3436" d="M3248.814-927.228a.264.264 0 0 0-.265.264v.53c0 .146.118.264.265.264h.529a.264.264 0 0 0 .264-.264v-.53a.264.264 0 0 0-.264-.264zm1.322.264v.53h2.117v-.53zm-1.322 1.063a.264.264 0 0 0-.265.264v.524c0 .146.118.265.265.265h.529a.264.264 0 0 0 .264-.265v-.524a.264.264 0 0 0-.264-.264zm1.322.26v.53h2.117v-.53zm-1.322 1.059a.264.264 0 0 0-.265.264v.524c0 .146.118.265.265.265h.529a.264.264 0 0 0 .264-.265v-.524a.264.264 0 0 0-.264-.264zm1.322.26v.53h2.117v-.53zm0 0" style="stroke-width:.202018"/><path fill="#2e3436" d="m3259.403-926.172-1.587 1.587-1.588-1.587zm0 0" style="stroke:none;stroke-width:.202018;stroke-opacity:1"/><rect width="8.996" height="8.996" x="3245.903" y="-929.875" fill="none" rx="1.588" ry="1.587" style="color:#000;display:inline;overflow:visible;visibility:visible;fill:#000;fill-opacity:0;fill-rule:nonzero;stroke:none;stroke-width:.202018;stroke-linecap:butt;stroke-linejoin:miter;stroke-miterlimit:4;stroke-dasharray:none;stroke-dashoffset:0;stroke-opacity:0;marker:none;enable-background:accumulate"/><path d="M3255.031-928.294v5.821" style="fill:none;stroke:#323232;stroke-width:.202018px;stroke-linecap:butt;stroke-linejoin:miter;stroke-opacity:.303293"/><rect width="5.292" height="8.996" x="3255.169" y="-929.875" fill="none" rx="1.587" ry="1.587" style="color:#000;display:inline;overflow:visible;visibility:visible;fill:#000;fill-opacity:0;fill-rule:nonzero;stroke:none;stroke-width:.202018;stroke-linecap:butt;stroke-linejoin:miter;stroke-miterlimit:4;stroke-dasharray:none;stroke-dashoffset:0;stroke-opacity:0;marker:none;enable-background:accumulate"/></g></svg>