<?xml version="1.0" encoding="UTF-8"?>
<svg height="128px" viewBox="0 0 128 128" width="128px" xmlns="http://www.w3.org/2000/svg" xmlns:xlink="http://www.w3.org/1999/xlink">
    <filter id="a" height="100%" width="100%" x="0%" y="0%">
        <feColorMatrix color-interpolation-filters="sRGB" values="0 0 0 0 1 0 0 0 0 1 0 0 0 0 1 0 0 0 1 0"/>
    </filter>
    <mask id="b">
        <g filter="url(#a)">
            <rect fill-opacity="0.4" height="153.6" width="153.6" x="-12.8" y="-12.8"/>
        </g>
    </mask>
    <linearGradient id="c" gradientUnits="userSpaceOnUse">
        <stop offset="0" stop-color="#b5835a"/>
        <stop offset="1" stop-color="#b5835a" stop-opacity="0"/>
    </linearGradient>
    <linearGradient id="d" gradientTransform="matrix(-5 0 0 1 -62 -156)" x1="-38" x2="-30" xlink:href="#c" y1="244" y2="244"/>
    <clipPath id="e">
        <rect height="152" width="192"/>
    </clipPath>
    <mask id="f">
        <g filter="url(#a)">
            <rect fill-opacity="0.42" height="153.6" width="153.6" x="-12.8" y="-12.8"/>
        </g>
    </mask>
    <linearGradient id="g" gradientTransform="matrix(2.75 0 0 1 142.5 -156)" x1="-38" x2="-30" xlink:href="#c" y1="244" y2="244"/>
    <clipPath id="h">
        <rect height="152" width="192"/>
    </clipPath>
    <mask id="i">
        <g filter="url(#a)">
            <rect fill-opacity="0.85" height="153.6" width="153.6" x="-12.8" y="-12.8"/>
        </g>
    </mask>
    <clipPath id="j">
        <rect height="152" width="192"/>
    </clipPath>
    <linearGradient id="k" gradientTransform="matrix(-1 0 0 1.398952 0 -264.112083)" gradientUnits="userSpaceOnUse" x1="-32" x2="-7.999474" y1="235.970428" y2="235.970428">
        <stop offset="0" stop-color="#f1cd32"/>
        <stop offset="0.583321" stop-color="#f8e76d"/>
        <stop offset="1" stop-color="#d9b22e"/>
    </linearGradient>
    <linearGradient id="l" gradientTransform="matrix(-1 0 0 1 0 -172)" gradientUnits="userSpaceOnUse" x1="-120" x2="-101" y1="243.999878" y2="243.999878">
        <stop offset="0" stop-color="#dab746"/>
        <stop offset="0.3" stop-color="#f9f06b"/>
        <stop offset="1" stop-color="#e4cf3c"/>
    </linearGradient>
    <linearGradient id="m" gradientTransform="matrix(-1 0 0 1 0 -172)" gradientUnits="userSpaceOnUse" x1="-120" x2="-100" y1="227.999878" y2="227.999878">
        <stop offset="0" stop-color="#dab746"/>
        <stop offset="0.3" stop-color="#f9f06b"/>
        <stop offset="1" stop-color="#e1bf3a"/>
    </linearGradient>
    <path d="m 32 18 c 0 6.625 -5.375 12 -12 12 c -6.628906 0 -12 -5.375 -12 -12 c 0 -6.628906 5.371094 -12 12 -12 c 6.625 0 12 5.371094 12 12 z m 0 0" fill="#c0bfbc"/>
    <path d="m 32 20 c 0 6.625 -5.375 12 -12 12 c -6.628906 0 -12 -5.375 -12 -12 c 0 -6.628906 5.371094 -12 12 -12 c 6.625 0 12 5.371094 12 12 z m 0 0" fill="#5e5c64"/>
    <path d="m 112 28 h -84 c -4.417969 0 -8 3.582031 -8 8 v 72 c 0 4.417969 3.582031 8 8 8 h 84 c 4.417969 0 8 -3.582031 8 -8 v -72 c 0 -4.417969 -3.582031 -8 -8 -8 z m 0 0" fill="#f8e45c"/>
    <g mask="url(#b)">
        <g clip-path="url(#e)" transform="matrix(1 0 0 1 -8 -16)">
            <path d="m 118.589844 44 h -33.457032 c -5.199218 0 -9.414062 3.582031 -9.414062 8 v 72 c 0 4.417969 4.214844 8 9.414062 8 h 33.457032 c 5.195312 0 9.410156 -3.582031 9.410156 -8 v -72 c 0 -4.417969 -4.214844 -8 -9.410156 -8 z m 0 0" fill="url(#d)"/>
        </g>
    </g>
    <g mask="url(#f)">
        <g clip-path="url(#h)" transform="matrix(1 0 0 1 -8 -16)">
            <path d="m 38 44 h 22 v 88 h -22 z m 0 0" fill="url(#g)"/>
        </g>
    </g>
    <g mask="url(#i)">
        <g clip-path="url(#j)" fill="none" stroke="#825b3a" stroke-linecap="round" stroke-linejoin="round" transform="matrix(1 0 0 1 -8 -16)">
            <path d="m 63.999997 220.999981 c -6.507819 0.005209 -12.554701 2.651045 -16.000017 7.000008 c 3.445316 4.348963 9.492198 6.9948 16.000017 7.000008 c 6.513029 -0.002604 12.565119 -2.645836 16.013039 -7.000008 c -3.44792 -4.351567 -9.50001 -6.997403 -16.013039 -7.000008 z m 0 0" stroke-width="3.99999" transform="matrix(1.499998 0 0 1.499998 -30.999889 -258.999603)"/>
            <path d="m 80.000015 227.999989 h 18.00002" stroke-width="4" transform="matrix(1.499998 0 0 1.499998 -30.999889 -258.999603)"/>
            <path d="m 68.000002 227.999989 c 0 2.76042 -2.239586 5.000006 -5.000006 5.000006 c -2.760419 0 -5.000005 -2.239586 -5.000005 -5.000006 s 2.239586 -5.000005 5.000005 -5.000005 c 2.76042 0 5.000006 2.239585 5.000006 5.000005 z m 0 0" stroke-width="3.99999" transform="matrix(1.499998 0 0 1.499998 -30.999889 -258.999603)"/>
            <g stroke-width="4">
                <path d="m 65.817708 235.682289 l 16.93231 10.713554" transform="matrix(1.499998 0 0 1.499998 -30.999889 -258.999603)"/>
                <path d="m 85.000021 238 c 1.890627 0 3.580733 1.182293 4.229171 2.960941 c 0.645834 1.778648 0.111979 3.770838 -1.335939 4.986985 c -1.450522 1.216147 -3.505212 1.395835 -5.143235 0.447917" transform="matrix(1.499998 0 0 1.499998 -30.999889 -258.999603)"/>
                <path d="m 63.999997 235.999998 v 13.000015" transform="matrix(1.499998 0 0 1.499998 -30.999889 -258.999603)"/>
                <path d="m 98.000035 39.99998 h -14.278661 c -5.117194 -5.15886 -12.255222 -7.997404 -19.718772 -8.000009 h -0.010417 c -7.458342 0.007813 -14.588558 2.843754 -19.700543 8.000009" transform="matrix(1.499998 0 0 1.499998 -30.999889 11.000096)"/>
            </g>
        </g>
    </g>
    <path d="m 20 10 c -6.628906 0 -12 5.371094 -12 12 v 87.996094 c 0 6.628906 5.371094 12.003906 12 12.003906 s 12 -5.375 12 -12.003906 v -87.996094 c 0 -6.628906 -5.371094 -12 -12 -12 z m 0 0" fill="url(#k)"/>
    <path d="m 8.410156 109.105469 c -1.40625 -5.246094 0.886719 -10.78125 5.589844 -13.496094 s 10.644531 -1.933594 14.484375 1.90625 s 4.621094 9.78125 1.90625 14.484375" fill="#b5944b"/>
    <path d="m 108 14 c -4.433594 0 -8 3.566406 -8 8 v 72 c 0 4.433594 3.566406 8 8 8 h 4 c 4.417969 0 8 3.582031 8 8 v -88 c 0 -4.433594 -3.566406 -8 -8 -8 z m 0 0" fill="#b5944b"/>
    <path d="m 112 36 v 64 c 4.417969 0 8 3.582031 8 8 v -72 z m 0 0" fill="url(#l)"/>
    <path d="m 112 12 h -4 c -4.417969 0 -8 3.582031 -8 8 v 72 c 0 4.417969 3.582031 8 8 8 h 4 c 4.417969 0 8 -3.582031 8 -8 v -72 c 0 -4.417969 -3.582031 -8 -8 -8 z m 0 0" fill="url(#m)"/>
    <path d="m 32 110 c 0 6.625 -5.375 12 -12 12 c -6.628906 0 -12 -5.375 -12 -12 c 0 -6.628906 5.371094 -12 12 -12 c 6.625 0 12 5.371094 12 12 z m 0 0" fill="#deddda"/>
    <path d="m 32 112 c 0 6.625 -5.375 12 -12 12 c -6.628906 0 -12 -5.375 -12 -12 c 0 -6.628906 5.371094 -12 12 -12 c 6.625 0 12 5.371094 12 12 z m 0 0" fill="#9a9996"/>
    <path d="m 30 112 c 0 5.523438 -4.476562 10 -10 10 s -10 -4.476562 -10 -10 s 4.476562 -10 10 -10 s 10 4.476562 10 10 z m 0 0" fill="#5e5c64"/>
    <path d="m 24 112 c 0 2.207031 -1.792969 4 -4 4 c -2.210938 0 -4 -1.792969 -4 -4 c 0 -2.210938 1.789062 -4 4 -4 c 2.207031 0 4 1.789062 4 4 z m 0 0" fill="#c0bfbc"/>
</svg>